<svg width="60" height="60" viewBox="0 0 60 60" fill="none" xmlns="http://www.w3.org/2000/svg">
<rect width="60" height="60" rx="30" fill="black" fill-opacity="0.2"/>
<path fill-rule="evenodd" clip-rule="evenodd" d="M37.5996 37.9996L25.5996 29.9996L37.5996 21.9996C37.7572 21.8946 37.8926 21.7595 37.998 21.6022C38.1034 21.4448 38.1767 21.2682 38.2139 21.0825C38.251 20.8968 38.2512 20.7056 38.2144 20.5198C38.1777 20.334 38.1047 20.1572 37.9996 19.9996C37.8946 19.8421 37.7595 19.7067 37.6021 19.6013C37.4448 19.4959 37.2682 19.4226 37.0825 19.3854C36.8968 19.3483 36.7056 19.3481 36.5198 19.3848C36.334 19.4216 36.1572 19.4946 35.9996 19.5996L22.3964 28.6684C22.1773 28.8146 21.9976 29.0125 21.8734 29.2447C21.7491 29.477 21.6841 29.7363 21.6841 29.9996C21.6841 30.263 21.7491 30.5223 21.8734 30.7546C21.9976 30.9868 22.1773 31.1847 22.3964 31.3308L35.9996 40.3996C36.1572 40.5047 36.334 40.5777 36.5198 40.6144C36.7056 40.6512 36.8968 40.651 37.0825 40.6139C37.2682 40.5767 37.4448 40.5034 37.6021 40.398C37.7595 40.2926 37.8946 40.1572 37.9996 39.9996C38.1047 39.8421 38.1777 39.6653 38.2144 39.4795C38.2512 39.2937 38.251 39.1025 38.2139 38.9168C38.1767 38.7311 38.1034 38.5545 37.998 38.3971C37.8926 38.2398 37.7572 38.1047 37.5996 37.9996Z" fill="white"/>
</svg>
