<svg width="21" height="20" viewBox="0 0 21 20" fill="none" xmlns="http://www.w3.org/2000/svg">
<rect x="0.431641" y="-0.00244141" width="20" height="20" rx="10" fill="#707070" fill-opacity="0.25"/>
<path fill-rule="evenodd" clip-rule="evenodd" d="M5.82455 6.50789C6.86411 4.88325 8.69059 3.80713 10.7679 3.80713C13.9976 3.80713 16.6231 6.40992 16.6231 9.62966C16.6231 11.845 15.3802 13.7683 13.5527 14.7526V15.2417C13.5527 15.5633 13.2921 15.8239 12.9708 15.8239H11.8069C7.62905 15.8239 4.24219 12.4351 4.24219 8.25465V7.09014C4.24219 6.76857 4.50271 6.50789 4.82409 6.50789H5.82455ZM6.7217 7.41981C7.50706 6.0059 9.02347 5.04597 10.7679 5.04597C13.3219 5.04597 15.385 7.1022 15.385 9.62966C15.385 11.2459 14.5414 12.6695 13.2652 13.4858C13.2053 13.4507 13.1383 13.4258 13.0664 13.4138L10.4852 12.9834C10.2332 12.9413 9.98327 13.0687 9.86903 13.2973L9.41859 14.1987C7.80442 13.5487 6.51601 12.2596 5.86643 10.6444L6.7673 10.1937C6.99579 10.0794 7.12305 9.82935 7.08105 9.57722L6.7217 7.41981Z" fill="#1B353D"/>
<path d="M7.9138 11.3418V11.007L9.17124 9.63049C9.31881 9.46928 9.44034 9.32915 9.53582 9.21011C9.63131 9.08982 9.70199 8.97697 9.74788 8.87156C9.795 8.76492 9.81856 8.65331 9.81856 8.53674C9.81856 8.40281 9.78632 8.28687 9.72183 8.1889C9.65859 8.09093 9.57178 8.01529 9.46142 7.96197C9.35105 7.90864 9.22704 7.88198 9.08939 7.88198C8.94306 7.88198 8.81534 7.91236 8.70621 7.97313C8.59832 8.03265 8.51462 8.11636 8.45509 8.22424C8.39681 8.33213 8.36767 8.45862 8.36767 8.60371H7.92868C7.92868 8.38049 7.98014 8.18456 8.08307 8.01591C8.186 7.84726 8.32612 7.71581 8.50346 7.62156C8.68203 7.52732 8.8823 7.48019 9.10427 7.48019C9.32749 7.48019 9.52528 7.52732 9.69765 7.62156C9.87002 7.71581 10.0052 7.84292 10.1032 8.00289C10.2011 8.16286 10.2501 8.34081 10.2501 8.53674C10.2501 8.67687 10.2247 8.8139 10.1738 8.94783C10.1242 9.08052 10.0374 9.22871 9.91343 9.3924C9.79066 9.55485 9.62015 9.75326 9.40189 9.98764L8.54624 10.9028V10.9326H10.3171V11.3418H7.9138Z" fill="#1B353D"/>
<path d="M10.9142 10.5606V10.1811L12.5883 7.53228H12.8636V8.12008H12.6776L11.4127 10.1216V10.1513H13.6671V10.5606H10.9142ZM12.7073 11.3418V7.53228H13.1463V11.3418H12.7073Z" fill="#1B353D"/>
</svg>
