<svg width="24" height="25" viewBox="0 0 24 25" fill="none" xmlns="http://www.w3.org/2000/svg">
<path fill-rule="evenodd" clip-rule="evenodd" d="M12.002 24.146C18.6294 24.146 24.002 18.7734 24.002 12.146C24.002 5.51858 18.6294 0.145996 12.002 0.145996C5.37454 0.145996 0.00195312 5.51858 0.00195312 12.146C0.00195312 18.7734 5.37454 24.146 12.002 24.146Z" fill="#707070" fill-opacity="0.25"/>
<path fill-rule="evenodd" clip-rule="evenodd" d="M17.4739 11.3062V9.80615H16.7059V11.3062H15.1699V12.0562H16.7059V13.5562H17.4739V12.0562H19.0099V11.3062H17.4739Z" fill="#1B353D"/>
<path fill-rule="evenodd" clip-rule="evenodd" d="M10.5627 11.3062V12.8062H12.7353C12.418 13.6792 11.564 14.3062 10.5627 14.3062C9.29266 14.3062 8.25866 13.2966 8.25866 12.0562C8.25866 10.8156 9.29266 9.80615 10.5627 9.80615C11.1133 9.80615 11.6433 9.99889 12.0547 10.3492L13.064 9.21815C12.3727 8.63015 11.4853 8.30615 10.5627 8.30615C8.44532 8.30615 6.72266 9.98842 6.72266 12.0562C6.72266 14.1239 8.44532 15.8062 10.5627 15.8062C12.68 15.8062 14.4027 14.1239 14.4027 12.0562V11.3062H10.5627Z" fill="#1B353D"/>
</svg>
