<svg width="21" height="21" viewBox="0 0 21 21" fill="none" xmlns="http://www.w3.org/2000/svg">
<rect x="0.431641" y="0.785645" width="20" height="20" rx="10" fill="#707070" fill-opacity="0.25"/>
<path d="M5.84123 5.54883C5.48342 5.54883 5.19336 5.84197 5.19336 6.20359V7.51311C5.19336 12.2141 8.96415 16.025 13.6157 16.025H14.9114C15.2692 16.025 15.5593 15.7319 15.5593 15.3703V13.9606C15.5593 13.6406 15.3303 13.3674 15.0179 13.3148L12.144 12.8307C11.8635 12.7835 11.5853 12.9266 11.4581 13.1837L10.9566 14.1974C9.15941 13.4665 7.72495 12.0168 7.00173 10.2005L8.00472 9.69367C8.25912 9.56512 8.4008 9.28392 8.35404 9.00039L7.87506 6.09595C7.823 5.78023 7.55271 5.54883 7.23601 5.54883H5.84123Z" fill="#1B353D"/>
<path d="M10.7071 6.10607C10.0981 6.10607 9.60439 6.51432 9.60439 7.01793V8.84163C9.60439 9.34524 10.0981 9.75349 10.7071 9.75349H11.8099V11.1213L13.464 9.75349H14.5668C15.1758 9.75349 15.6695 9.34524 15.6695 8.84163V7.01793C15.6695 6.51432 15.1758 6.10607 14.5668 6.10607H10.7071Z" fill="#1B353D"/>
</svg>
