<svg width="24" height="25" viewBox="0 0 24 25" fill="none" xmlns="http://www.w3.org/2000/svg">
<path fill-rule="evenodd" clip-rule="evenodd" d="M12.002 24.146C18.6294 24.146 24.002 18.7734 24.002 12.146C24.002 5.51858 18.6294 0.145996 12.002 0.145996C5.37454 0.145996 0.00195312 5.51858 0.00195312 12.146C0.00195312 18.7734 5.37454 24.146 12.002 24.146Z" fill="#707070" fill-opacity="0.25"/>
<path fill-rule="evenodd" clip-rule="evenodd" d="M18.5302 8.98044C18.0732 9.17617 17.5863 9.30591 17.0787 9.36891C17.6009 9.06444 17.9995 8.58591 18.1869 8.00917C17.7 8.29271 17.1624 8.49291 16.5895 8.60471C16.1271 8.12391 15.4681 7.82617 14.7493 7.82617C13.3546 7.82617 12.2318 8.93171 12.2318 10.2869C12.2318 10.4819 12.2487 10.6694 12.2902 10.8479C10.1959 10.7482 8.34265 9.76791 7.09772 8.27471C6.88039 8.64291 6.75285 9.06444 6.75285 9.51817C6.75285 10.3702 7.20219 11.1254 7.87185 11.5627C7.46712 11.5552 7.07005 11.4404 6.73365 11.2597C6.73365 11.2672 6.73365 11.2769 6.73365 11.2867C6.73365 12.4822 7.60692 13.4752 8.75199 13.7039C8.54692 13.7587 8.32345 13.7849 8.09152 13.7849C7.93025 13.7849 7.76739 13.7759 7.61459 13.7429C7.94099 14.7172 8.86719 15.4334 9.96852 15.4567C9.11139 16.1114 8.02319 16.5059 6.84505 16.5059C6.63845 16.5059 6.44032 16.4969 6.24219 16.4722C7.35805 17.1749 8.68059 17.5762 10.1067 17.5762C14.7424 17.5762 17.2768 13.8262 17.2768 10.5757C17.2768 10.4669 17.2729 10.3619 17.2676 10.2577C17.7675 9.91117 18.1877 9.47844 18.5302 8.98044Z" fill="#1B353D"/>
</svg>
