<svg width="24" height="25" viewBox="0 0 24 25" fill="none" xmlns="http://www.w3.org/2000/svg">
<path fill-rule="evenodd" clip-rule="evenodd" d="M12.002 24.146C18.6294 24.146 24.002 18.7734 24.002 12.146C24.002 5.51858 18.6294 0.145996 12.002 0.145996C5.37454 0.145996 0.00195312 5.51858 0.00195312 12.146C0.00195312 18.7734 5.37454 24.146 12.002 24.146Z" fill="#707070" fill-opacity="0.25"/>
<path fill-rule="evenodd" clip-rule="evenodd" d="M9.75195 6.146H14.252C16.3226 6.146 18.002 7.82526 18.002 9.896V14.396C18.002 16.4667 16.3226 18.146 14.252 18.146H9.75195C7.68129 18.146 6.00195 16.4667 6.00195 14.396V9.896C6.00195 7.82526 7.68129 6.146 9.75195 6.146ZM14.2516 17.021C15.699 17.021 16.8763 15.8435 16.8763 14.396V9.896C16.8763 8.44853 15.699 7.271 14.2516 7.271H9.75162C8.30429 7.271 7.12695 8.44853 7.12695 9.896V14.396C7.12695 15.8435 8.30429 17.021 9.75162 17.021H14.2516Z" fill="#1B353D"/>
<path fill-rule="evenodd" clip-rule="evenodd" d="M9.00195 12.146C9.00195 10.4893 10.3453 9.146 12.002 9.146C13.6586 9.146 15.002 10.4893 15.002 12.146C15.002 13.8027 13.6586 15.146 12.002 15.146C10.3453 15.146 9.00195 13.8027 9.00195 12.146ZM10.127 12.146C10.127 13.1795 10.9683 14.021 12.0016 14.021C13.035 14.021 13.8763 13.1795 13.8763 12.146C13.8763 11.1117 13.035 10.271 12.0016 10.271C10.9683 10.271 10.127 11.1117 10.127 12.146Z" fill="#1B353D"/>
<path fill-rule="evenodd" clip-rule="evenodd" d="M15.2275 9.32095C15.4488 9.32095 15.6275 9.14202 15.6275 8.92122C15.6275 8.70042 15.4488 8.52148 15.2275 8.52148C15.0068 8.52148 14.8281 8.70042 14.8281 8.92122C14.8281 9.14202 15.0068 9.32095 15.2275 9.32095Z" fill="#1B353D"/>
</svg>
