<svg width="19" height="28" viewBox="0 0 19 28" fill="none" xmlns="http://www.w3.org/2000/svg">
<path d="M4.34609 11.096C4.94368 12.3936 6.82739 12.2681 7.24756 10.9027L7.64636 9.60678C7.85042 8.94366 8.46873 8.49566 9.16243 8.50832L9.76437 8.5193C11.3914 8.54898 11.9671 6.3772 10.539 5.59706L4.6589 2.38479C4.30638 2.19221 4.28013 1.6998 4.63128 1.50472V1.50472C5.91078 0.78152 7.30155 0.419922 8.80357 0.419922C10.5281 0.419922 12.1136 0.878874 13.56 1.79678C15.0342 2.71468 16.2024 4.13326 17.0647 6.05252C17.9548 7.94396 18.3999 10.3778 18.3999 13.354C18.3999 16.7753 17.9131 19.5708 16.9396 21.7404C15.966 23.8821 14.6865 25.4537 13.101 26.455C11.5156 27.4564 9.80493 27.9571 7.96912 27.9571C6.38364 27.9571 5.00679 27.665 3.83854 27.0809C3.14584 26.7345 2.5167 26.3442 1.95113 25.9098C1.30642 25.4147 1.29224 24.4833 1.83123 23.8748L2.27861 23.3697C2.90474 22.6628 4.01621 22.6857 4.81411 23.1909C4.98217 23.2973 5.15766 23.3979 5.34057 23.4927C6.1194 23.8543 6.91213 24.0351 7.71878 24.0351C8.83139 24.0351 9.84665 23.7291 10.7646 23.1172C11.6825 22.5053 12.4335 21.49 13.0176 20.0714C13.2826 19.4153 13.4932 18.656 13.6494 17.7938C13.8592 16.6358 12.2649 15.9352 11.2235 16.4833V16.4833C10.1665 17.0396 9.15127 17.3177 8.17773 17.3177C5.89688 17.3177 4.03325 16.6502 2.58685 15.315C1.16827 13.9521 0.458984 11.8798 0.458984 9.0983C0.458984 8.63685 0.484215 8.19223 0.534675 7.76443C0.685483 6.48589 2.21029 6.45838 2.74882 7.62773L4.34609 11.096Z" fill="#0F756B"/>
</svg>
